<?xml version="1.0" standalone="no"?>
<!DOCTYPE svg PUBLIC "-//W3C//DTD SVG 20010904//EN"
 "http://www.w3.org/TR/2001/REC-SVG-20010904/DTD/svg10.dtd">
<svg version="1.0" xmlns="http://www.w3.org/2000/svg"
 width="1080.000000pt" height="1080.000000pt" viewBox="0 0 1080.000000 1080.000000"
 preserveAspectRatio="xMidYMid meet">
<metadata>
Created by potrace 1.14, written by Peter Selinger 2001-2017
</metadata>
<g transform="translate(0.000000,1080.000000) scale(0.100000,-0.100000)"
fill="#000000" stroke="none">
<path d="M0 5400 l0 -5400 5400 0 5400 0 0 5400 0 5400 -5400 0 -5400 0 0
-5400z m3222 2403 l3 -1676 1780 1676 1780 1677 1250 0 1250 0 -30 -29 c-17
-15 -868 -770 -1893 -1676 -1025 -906 -1862 -1651 -1860 -1655 2 -5 867 -1049
1923 -2321 1056 -1273 1951 -2351 1988 -2396 l68 -83 -1243 0 -1243 0 -1423
1780 -1423 1780 -142 -128 c-78 -70 -287 -257 -465 -416 l-322 -288 0 -1364 0
-1364 -950 0 -950 0 0 4080 0 4080 950 0 950 0 2 -1677z"/>
</g>
</svg>
